<?xml version="1.0" encoding="utf-8"?>
<!-- Generator: Adobe Illustrator 27.0.1, SVG Export Plug-In . SVG Version: 6.00 Build 0)  -->
<svg version="1.1" id="Layer_1" xmlns="http://www.w3.org/2000/svg" xmlns:xlink="http://www.w3.org/1999/xlink" x="0px" y="0px"
	 viewBox="0 0 360 108" style="enable-background:new 0 0 360 108;" xml:space="preserve">
<style type="text/css">
	.st0{fill:#5085B5;}
	.st1{fill:#E08156;}
</style>
<g>
	<path class="st0" d="M78.56,21.93c2.77,0,5.35,0.53,7.64,2.34c2.44,1.96,3.92,4.92,3.92,8.69c0,3.77-1.67,6.93-4.25,8.88
		c-2.24,1.67-4.87,2.15-7.55,2.15h-8.17v8.36c0,1.43-1.24,2.58-2.67,2.58c-1.48,0-2.67-1.15-2.67-2.58v-27.8
		c0-1.48,1.19-2.63,2.67-2.63H78.56z M82.28,27.8c-1.29-0.86-2.72-1.19-4.44-1.19h-7.69v12.7h7.35c1.67,0,3.3-0.24,4.58-1.1
		c1.58-1,2.58-2.82,2.58-5.25S83.76,28.81,82.28,27.8z"/>
	<path class="st0" d="M100.05,49.72h16.86c1.29,0,2.29,1.1,2.29,2.34c0,1.34-1,2.39-2.29,2.39H97.37c-1.48,0-2.67-1.15-2.67-2.58
		V24.51c0-1.43,1.19-2.58,2.67-2.58h19.53c1.29,0,2.29,1.1,2.29,2.39c0,1.29-1,2.34-2.29,2.34h-16.86v9.12h14.38
		c1.24,0,2.24,1.05,2.24,2.34c0,1.34-1,2.39-2.24,2.39h-14.38V49.72z"/>
	<path class="st0" d="M152.15,52.02c0,1.67-1.38,2.91-3.06,2.91c-1.1,0-2.01-0.53-2.67-1.38l-17.77-22.78V52.5
		c0,1.34-1.15,2.44-2.53,2.44c-1.43,0-2.58-1.1-2.58-2.44V24.41c0-1.62,1.34-2.91,3.06-2.91c1.1,0,1.96,0.62,2.63,1.43l17.81,22.73
		V23.93c0-1.34,1.1-2.44,2.53-2.44c1.43,0,2.58,1.1,2.58,2.44V52.02z"/>
	<path class="st0" d="M209.71,23.31c0.33-1.15,1.43-1.81,2.67-1.81c1.48,0,2.72,1,2.72,2.58c0,0.33-0.14,0.76-0.24,1.15l-8.93,26.94
		c-0.53,1.58-1.72,2.77-3.82,2.77s-3.3-1.19-3.82-2.77l-7.16-20.54l-7.02,20.54c-0.53,1.58-1.67,2.77-3.82,2.77
		c-2.1,0-3.25-1.19-3.77-2.77l-9.07-27.03c-0.1-0.33-0.19-0.67-0.19-1c0-1.43,1.19-2.63,2.77-2.63c1.38,0,2.24,0.76,2.63,1.96
		l7.69,24.55l7.98-24.45c0.38-1.15,1.19-2.05,2.87-2.05c1.72,0,2.44,0.86,2.82,2.05l8.17,24.45L209.71,23.31z"/>
	<path class="st0" d="M276.38,47.34c1.34-1.53,2.01-3.73,2.01-6.5V24.08c0-1.43,1.19-2.58,2.67-2.58s2.67,1.15,2.67,2.58v17.53
		c0,3.73-1,6.88-3.01,9.12c-2.39,2.72-6.16,4.2-10.94,4.2c-4.73,0-8.5-1.48-10.89-4.2c-2.01-2.24-3.01-5.4-3.01-9.12V24.08
		c0-1.43,1.19-2.58,2.67-2.58s2.67,1.15,2.67,2.58v16.76c0,2.77,0.67,4.97,2.01,6.5c1.53,1.77,3.77,2.58,6.54,2.58
		C272.61,49.92,274.85,49.1,276.38,47.34z"/>
	<path class="st0" d="M318.6,52.02c0,1.67-1.38,2.91-3.06,2.91c-1.1,0-2.01-0.53-2.67-1.38L295.1,30.76V52.5
		c0,1.34-1.15,2.44-2.53,2.44c-1.43,0-2.58-1.1-2.58-2.44V24.41c0-1.62,1.34-2.91,3.06-2.91c1.1,0,1.96,0.62,2.63,1.43l17.81,22.73
		V23.93c0-1.34,1.1-2.44,2.53-2.44s2.58,1.1,2.58,2.44V52.02z"/>
	<path class="st0" d="M349.45,50.68c-3.68,3.01-8.26,3.77-12.66,3.77h-9.17c-1.48,0-2.67-1.15-2.67-2.58V24.51
		c0-1.43,1.19-2.58,2.67-2.58h9.84c5.21,0,9.89,1.15,13.47,5.06c2.39,2.53,3.87,6.21,3.87,11.18
		C354.8,43.99,352.65,48.05,349.45,50.68z M330.3,49.96h6.07c3.68,0,6.83-0.81,9.17-2.77c2.44-2.01,3.82-4.92,3.82-9.03
		c0-3.63-1.05-6.26-2.77-8.17c-2.25-2.48-5.73-3.58-9.93-3.58h-6.35V49.96z"/>
	<path class="st0" d="M88.25,88.6c0,1.12-0.97,2.02-2.09,2.02c-1.16,0-2.09-0.9-2.09-2.02V66.86c0-1.16,0.93-2.05,2.09-2.05h8.89
		c2.43,0,4.59,0.37,6.31,1.57c1.83,1.31,2.95,3.59,2.95,6.42c0,2.62-1.01,4.67-2.88,6.16c-0.86,0.71-1.76,1.16-2.65,1.42l5.23,7.06
		c0.22,0.34,0.34,0.71,0.34,1.08c0,1.12-0.97,2.09-2.13,2.09c-0.75,0-1.34-0.37-1.79-0.97l-6.28-8.78h-5.9V88.6z M88.25,68.36v8.96
		h6.35c1.38,0,2.61-0.15,3.62-0.75c1.08-0.67,1.87-1.87,1.87-3.7c0-1.87-0.71-3.03-1.79-3.74c-1.01-0.64-2.24-0.78-3.66-0.78H88.25z
		"/>
	<path class="st0" d="M116.71,86.55h13.19c1.01,0,1.79,0.86,1.79,1.83c0,1.04-0.78,1.87-1.79,1.87h-15.28
		c-1.16,0-2.09-0.9-2.09-2.02v-21.4c0-1.12,0.93-2.02,2.09-2.02h15.28c1.01,0,1.79,0.86,1.79,1.87c0,1.01-0.78,1.83-1.79,1.83
		h-13.19v7.13h11.24c0.97,0,1.76,0.82,1.76,1.83c0,1.05-0.78,1.87-1.76,1.87h-11.24V86.55z"/>
	<path class="st0" d="M153.43,69.7c-1.76,0-3.03-1.46-6.2-1.46c-3.06,0-4.74,0.93-4.74,2.99c0,1.64,1.42,2.54,3.47,3.25
		c2.39,0.82,5.04,1.35,7.32,2.76c1.76,1.08,3.1,2.84,3.1,5.6c0,4.93-4,7.77-9.41,7.77c-3.66,0-9-1.38-9-3.81
		c0-1.16,0.93-2.02,2.02-2.02c1.68,0,3.06,2.13,6.91,2.13c3.51,0,4.93-1.72,4.93-3.74c0-1.72-1.34-2.69-3.21-3.44
		c-2.09-0.82-4.71-1.31-7.02-2.58c-2.02-1.12-3.51-2.88-3.51-5.79c0-4.11,3.29-6.91,9.38-6.91c1.61,0,7.96,0.49,7.96,3.29
		C155.41,68.84,154.55,69.7,153.43,69.7z"/>
	<path class="st0" d="M168.33,86.55h13.19c1.01,0,1.79,0.86,1.79,1.83c0,1.04-0.78,1.87-1.79,1.87h-15.28
		c-1.16,0-2.09-0.9-2.09-2.02v-21.4c0-1.12,0.93-2.02,2.09-2.02h15.28c1.01,0,1.79,0.86,1.79,1.87c0,1.01-0.78,1.83-1.79,1.83
		h-13.19v7.13h11.24c0.97,0,1.75,0.82,1.75,1.83c0,1.05-0.78,1.87-1.75,1.87h-11.24V86.55z"/>
	<path class="st0" d="M204.97,84.53h-10.65l-1.75,4.63c-0.34,0.93-0.93,1.46-2.09,1.46c-1.27,0-1.98-0.9-1.98-1.9
		c0-0.26,0.11-0.71,0.22-1.01l8.11-21.1c0.45-1.2,1.2-2.17,2.91-2.17c1.68,0,2.46,1.01,2.91,2.17l8.03,21.1
		c0.07,0.26,0.19,0.71,0.19,0.97c0,1.2-0.86,1.94-2.09,1.94c-1.01,0-1.76-0.52-2.02-1.46L204.97,84.53z M195.4,81.17h8.55
		l-4.26-11.39L195.4,81.17z"/>
	<path class="st0" d="M221.77,88.6c0,1.12-0.97,2.02-2.09,2.02c-1.16,0-2.09-0.9-2.09-2.02V66.86c0-1.16,0.93-2.05,2.09-2.05h8.89
		c2.43,0,4.59,0.37,6.31,1.57c1.83,1.31,2.95,3.59,2.95,6.42c0,2.62-1.01,4.67-2.88,6.16c-0.86,0.71-1.76,1.16-2.65,1.42l5.23,7.06
		c0.22,0.34,0.34,0.71,0.34,1.08c0,1.12-0.97,2.09-2.13,2.09c-0.75,0-1.34-0.37-1.79-0.97l-6.28-8.78h-5.9V88.6z M221.77,68.36v8.96
		h6.35c1.38,0,2.62-0.15,3.62-0.75c1.08-0.67,1.87-1.87,1.87-3.7c0-1.87-0.71-3.03-1.79-3.74c-1.01-0.64-2.24-0.78-3.66-0.78H221.77
		z"/>
	<path class="st0" d="M264.65,69.74c-1.53,0-2.5-1.46-6.24-1.46c-4.89,0-9,4.07-9,9.23c0,5.53,4.03,9.23,9.04,9.23
		c3.59,0,5-1.46,6.39-1.46c1.08,0,1.94,0.82,1.94,1.94c0,2.73-6.31,3.4-8.33,3.4c-7.55,0-13.41-5.12-13.41-13.11
		c0-7.43,6.09-13.04,13.45-13.04c3.03,0,8.03,0.82,8.03,3.32C266.52,68.92,265.69,69.74,264.65,69.74z"/>
	<path class="st0" d="M274.32,66.49c0-1.12,0.93-2.02,2.09-2.02c1.2,0,2.09,0.9,2.09,2.02v9.11h13.41v-9.11
		c0-1.12,0.97-2.02,2.09-2.02c1.2,0,2.09,0.9,2.09,2.02V88.6c0,1.12-0.93,2.02-2.09,2.02c-1.12,0-2.09-0.9-2.09-2.02v-9.3H278.5v9.3
		c0,1.12-0.97,2.02-2.09,2.02c-1.16,0-2.09-0.9-2.09-2.02V66.49z"/>
	<path class="st0" d="M52.59,32.34c0.96,1.73,1.51,3.75,1.51,5.92c0,6.54-4.92,11.7-11.51,11.7c-6.54,0-11.56-5.16-11.56-11.7
		s5.01-11.75,11.56-11.75c3.08,0,5.79,1.15,7.81,3.03l5.13-2.41c-3.18-3.51-7.84-5.64-12.95-5.64c-9.36,0-17.19,7.07-17.19,16.76
		c0,9.65,7.83,16.67,17.19,16.67c9.31,0,17.19-6.97,17.19-16.67c0-3.07-0.79-5.87-2.17-8.28L52.59,32.34z"/>
	<path class="st0" d="M243.63,32.17c1.02,1.77,1.61,3.85,1.61,6.09c0,6.54-4.92,11.7-11.51,11.7c-6.54,0-11.56-5.16-11.56-11.7
		s5.01-11.75,11.56-11.75c2.96,0,5.58,1.06,7.57,2.81l5.15-2.41c-3.18-3.37-7.74-5.41-12.72-5.41c-9.36,0-17.19,7.07-17.19,16.76
		c0,9.65,7.83,16.67,17.19,16.67c9.31,0,17.19-6.97,17.19-16.67c0-3.14-0.84-6.01-2.28-8.45L243.63,32.17z"/>
</g>
<g>
	<path class="st1" d="M22.82,38.06c0-5.36,2.16-10.22,5.65-13.78l-2.81-2.67c-0.01,0.01-0.02,0.03-0.04,0.04l-4.29-4.06
		c0.74-1.09,1.18-2.4,1.18-3.82c0-3.74-3.03-6.78-6.78-6.78s-6.78,3.03-6.78,6.78s3.03,6.78,6.78,6.78c1.55,0,2.97-0.52,4.11-1.4
		l4.34,4.11c-2.89,3.57-4.76,7.99-5.16,12.82l-7.01-0.56c-0.12-1.63-1.46-2.92-3.13-2.92c-1.74,0-3.15,1.41-3.15,3.15
		c0,1.74,1.41,3.15,3.15,3.15c1.45,0,2.66-0.98,3.02-2.32l7.05,0.56c-0.01,0.3-0.02,0.61-0.02,0.91c0,2.03,0.26,4,0.75,5.88
		l3.59-1.68C22.99,40.91,22.82,39.51,22.82,38.06z"/>
	<path class="st1" d="M42.13,66.45v-4.85c0.12,0,0.24,0.02,0.36,0.02c4.14,0,8.03-1.08,11.41-2.96l-1.99-3.34
		c-2.8,1.54-6,2.43-9.42,2.43c-7.53,0-14.07-4.25-17.38-10.48c-0.29-0.54-0.54-1.1-0.78-1.67l-3.61,1.69l0,0l-4.75,2.23
		c-1.22-1.8-3.28-2.98-5.62-2.98c-3.74,0-6.78,3.03-6.78,6.78s3.03,6.78,6.78,6.78c3.74,0,6.78-3.03,6.78-6.78
		c0-0.64-0.09-1.25-0.26-1.84l4.88-2.29c2.64,4.9,6.95,8.77,12.19,10.82c2.23,0.87,4.63,1.39,7.12,1.55v4.9
		c-1.48,0.25-2.62,1.54-2.62,3.09c0,1.74,1.41,3.15,3.15,3.15s3.15-1.41,3.15-3.15C44.75,67.98,43.61,66.7,42.13,66.45z"/>
</g>
</svg>
